<svg xmlns="http://www.w3.org/2000/svg" viewBox="0 0 210 94"><defs><style>.cls-1{fill:#414142;}.cls-2{fill:#f27024;}.cls-3{fill:#fab816;}.cls-4{fill:#db6626;}</style></defs><g id="Layer_1" data-name="Layer 1"><path class="cls-1" d="M193.23,31.42A13.23,13.23,0,0,1,191,35.63a12,12,0,0,1-14.09,3,11.09,11.09,0,0,1-3.75-3,12.84,12.84,0,0,1-2.28-4.21,15.32,15.32,0,0,1,0-9.53,12.24,12.24,0,0,1,2.23-4.1,11.24,11.24,0,0,1,3.7-2.89,12.47,12.47,0,0,1,10.33,0,11.76,11.76,0,0,1,3.75,2.89,12.67,12.67,0,0,1,2.34,4.1,14.44,14.44,0,0,1,.81,4.77,15.44,15.44,0,0,1-.76,4.76m14.54-15.91a24.78,24.78,0,0,0-6.08-8.42,27.08,27.08,0,0,0-8.92-5.27,33.07,33.07,0,0,0-21.64,0,26.49,26.49,0,0,0-8.92,5.27,25.2,25.2,0,0,0-6,8.42A27,27,0,0,0,154,26.66a27.33,27.33,0,0,0,2.23,11.19,25.52,25.52,0,0,0,6,8.52,27.16,27.16,0,0,0,8.92,5.42,31.29,31.29,0,0,0,21.64,0,27.8,27.8,0,0,0,8.92-5.42,25.09,25.09,0,0,0,6.08-8.52A27.17,27.17,0,0,0,210,26.66a26.85,26.85,0,0,0-2.23-11.15m-52.7-8.72A20,20,0,0,0,151.47,4a24.49,24.49,0,0,0-4.56-2.13A37.33,37.33,0,0,0,141.74.51,29,29,0,0,0,136.32,0a32.47,32.47,0,0,0-11.06,1.87,26.75,26.75,0,0,0-9,5.38,25,25,0,0,0-6,8.46A27.36,27.36,0,0,0,108,26.86a27.61,27.61,0,0,0,2.19,11.25,25,25,0,0,0,6,8.46,25.83,25.83,0,0,0,9,5.32,33.24,33.24,0,0,0,11.16,1.83A31.92,31.92,0,0,0,147,52a21.57,21.57,0,0,0,8.11-4.76L145.84,36a9.5,9.5,0,0,1-4,2.79,13.81,13.81,0,0,1-5,1,11.18,11.18,0,0,1-8.66-3.8,12.07,12.07,0,0,1-2.38-4.1,15.06,15.06,0,0,1-.81-5,14.11,14.11,0,0,1,.86-5,13.33,13.33,0,0,1,2.38-4.1A11.57,11.57,0,0,1,131.86,15a10.47,10.47,0,0,1,4.76-1.06,11.86,11.86,0,0,1,5,1.11,10.06,10.06,0,0,1,3.85,2.94ZM50.73,15.91A25,25,0,0,0,45.51,7.3a22.36,22.36,0,0,0-8-5.43A27.4,27.4,0,0,0,27.26,0,29.32,29.32,0,0,0,16.52,1.93,25.67,25.67,0,0,0,7.91,7.35a25.25,25.25,0,0,0-5.78,8.51A28.41,28.41,0,0,0,0,27.06,28,28,0,0,0,2.18,38.41a23.92,23.92,0,0,0,6,8.36A25.9,25.9,0,0,0,17,51.94a32.36,32.36,0,0,0,10.74,1.78A31,31,0,0,0,41.3,50.93a23.39,23.39,0,0,0,9.38-8L39.12,35.68a13.24,13.24,0,0,1-4.46,3.8A14,14,0,0,1,28,41a13.4,13.4,0,0,1-8-2.69,10.81,10.81,0,0,1-2.74-3,8.87,8.87,0,0,1-1.27-3.85H52.5a16.93,16.93,0,0,0,.1-1.93v-2a33.18,33.18,0,0,0-1.87-11.56M15.91,21.08a9.08,9.08,0,0,1,1-3.7,10.09,10.09,0,0,1,2.43-3.09,11.46,11.46,0,0,1,3.55-2.08,12.73,12.73,0,0,1,4.46-.76c3.3,0,5.79,1,7.44,2.84a10,10,0,0,1,2.49,6.79Z"/><path class="cls-1" d="M186.85,74.48c0-1.51,1.48-2.17,3.05-2.17,1.34,0,2.68.53,3,2,.13.4.31.63.72.63H195a.61.61,0,0,0,.68-.71c-.34-2.88-2.76-4.5-5.77-4.5-3.27,0-5.84,1.88-5.84,4.76,0,6.06,9.17,3.7,9.17,7.34,0,1.51-1.47,2.17-3.33,2.17-1.61,0-3-.53-3.27-2-.13-.4-.32-.63-.72-.63h-1.42a.6.6,0,0,0-.67.71c.34,2.88,2.78,4.5,6.08,4.5,3.56,0,6.13-1.86,6.13-4.76,0-6.07-9.18-3.69-9.18-7.34M172,69.89a5,5,0,0,0-4.16,2.66V70.8a.61.61,0,0,0-.68-.68h-1.43a.61.61,0,0,0-.68.68V85.5a.61.61,0,0,0,.68.68h1.43a.61.61,0,0,0,.68-.68V77.59c0-3.46,2.12-4.75,4.38-4.85.29,0,.47-.26.47-.67V70.54C172.65,70.1,172.41,69.84,172,69.89ZM139.21,77a5.23,5.23,0,0,1,5.44-4.64,4.94,4.94,0,0,1,5,4.64Zm5.44-7.25a8.43,8.43,0,0,0,0,16.86,7.43,7.43,0,0,0,7-4.17c.18-.41-.09-.7-.6-.7h-1.54a1,1,0,0,0-.83.45,4.77,4.77,0,0,1-4,1.91,5.27,5.27,0,0,1-5.51-4.64h12.57a.65.65,0,0,0,.72-.65c0-.19,0-.38,0-.58,0-4.51-3-8.48-7.88-8.48m-26.06,0a5.26,5.26,0,0,0-4.75,2.38V70.8a.61.61,0,0,0-.68-.68h-1.43a.61.61,0,0,0-.68.68V85.5a.61.61,0,0,0,.68.68h1.43a.61.61,0,0,0,.68-.68V77c0-3.46,2-4.67,4-4.67a3.16,3.16,0,0,1,3.33,3.49V85.5a.61.61,0,0,0,.68.68h1.43a.61.61,0,0,0,.68-.68V75.76c0-3.78-2.39-6-5.37-6Zm-20,.4H96.11V65.67a.62.62,0,0,0-.69-.69H94a.62.62,0,0,0-.69.69v4.45H90.82a.61.61,0,0,0-.68.68v1.34a.61.61,0,0,0,.68.68h2.49V85.5a.62.62,0,0,0,.69.68h1.42a.62.62,0,0,0,.69-.68V72.82h2.46a.61.61,0,0,0,.68-.68V70.8a.61.61,0,0,0-.68-.68m-20.2-.23a5,5,0,0,0-4.16,2.66V70.8a.61.61,0,0,0-.68-.68H72.1a.61.61,0,0,0-.68.68V85.5a.61.61,0,0,0,.68.68h1.43a.61.61,0,0,0,.68-.68V77.59c0-3.46,2.12-4.75,4.38-4.85.29,0,.47-.26.47-.67V70.54C79.06,70.1,78.82,69.84,78.37,69.89Zm-27,14.35c-2.52,0-3.66-1.19-3.66-2.79s1.14-2.79,3.66-2.79c2.32,0,4,1.07,4,2.79s-1.64,2.79-4,2.79m.47-14.52c-3.32,0-5.84,1.91-6.21,4.83a.61.61,0,0,0,.68.71h1.41c.41,0,.6-.23.72-.63.3-1.51,1.76-2.26,3.4-2.26a3.2,3.2,0,0,1,3.49,3.53v2.28a6.2,6.2,0,0,0-4.77-1.86c-2.93,0-5.64,1.69-5.64,5.13s2.71,5.13,5.64,5.13a5.67,5.67,0,0,0,4.77-2.06v1a.61.61,0,0,0,.68.68h1.39a.62.62,0,0,0,.69-.68V75.82c0-3.88-2.67-6.1-6.25-6.1m-27,14.18a5.75,5.75,0,1,1,5.7-5.75,5.61,5.61,0,0,1-5.7,5.75m.36-14.18a7,7,0,0,0-6.06,3.12v-2a.61.61,0,0,0-.68-.68H17a.62.62,0,0,0-.69.68V91.92a.62.62,0,0,0,.69.68h1.43a.61.61,0,0,0,.68-.68V83.46a7,7,0,0,0,6.06,3.12,8.44,8.44,0,0,0,0-16.86"/><path class="cls-2" d="M75.52,32.75a7.6,7.6,0,0,1,0-10.76h0l5.64-5.65L67.36,2.54h0a7.61,7.61,0,1,0-10.6,10.91L70.67,27.37,56.6,41.44h0A7.61,7.61,0,1,0,67.38,52.19L81.16,38.4l-5.64-5.64Z"/><path class="cls-3" d="M105.73,41.44,91.65,27.37l13.92-13.92A7.61,7.61,0,1,0,95,2.54h0l-13.8,13.8L86.8,22h0a7.59,7.59,0,0,1,0,10.76h0L81.16,38.4,95,52.19a7.61,7.61,0,0,0,10.78-10.75Z"/><path class="cls-4" d="M86.8,32.75a7.59,7.59,0,0,0,0-10.76h0l-5.64-5.64L75.52,22h0a7.6,7.6,0,0,0,0,10.76h0l5.64,5.64,5.65-5.64Z"/></g></svg>